<svg version="1.1" id="Layer_1" xmlns="http://www.w3.org/2000/svg" xmlns:xlink="http://www.w3.org/1999/xlink" x="0px" y="0px"
	 width="100%" viewBox="0 0 1938 1098" enable-background="new 0 0 1938 1098" xml:space="preserve">
<path fill="#006600" opacity="1.000000" stroke="none" 
	d="
M519.000000,0.999998 
	C539.020874,1.000000 559.041809,1.000000 579.721313,1.395016 
	C583.207947,1.860249 586.036011,1.991927 588.864014,1.991985 
	C1034.006958,2.001075 1479.149902,2.000524 1924.292847,2.001658 
	C1934.934937,2.001685 1937.998901,5.047515 1937.998901,15.611572 
	C1937.999512,371.925903 1937.999634,728.240234 1937.998779,1084.554565 
	C1937.998779,1094.865234 1934.886841,1097.998657 1924.643555,1097.998657 
	C1470.001099,1097.999390 1015.358643,1097.956421 560.716187,1098.071899 
	C519.766357,1098.082275 479.149536,1095.161011 439.077362,1086.677124 
	C333.109741,1064.242065 241.127625,1015.314758 164.404312,938.832581 
	C72.834412,847.550598 19.886335,737.206787 5.199131,608.722595 
	C-0.374821,559.961426 1.174111,511.279114 8.877317,462.780579 
	C18.753099,400.603699 38.635265,341.819733 69.011398,286.716278 
	C159.343597,122.850266 320.624054,18.441145 507.055145,2.757698 
	C511.057739,2.420980 515.019287,1.596784 519.000000,0.999998 
M519.291382,194.219650 
	C520.457031,195.159973 521.590271,196.144058 522.793152,197.034012 
	C538.233826,208.457947 559.430603,209.029663 575.219849,198.463425 
	C591.727295,187.416550 599.471802,167.622147 594.656372,148.784836 
	C589.813110,129.838623 573.364258,115.786552 554.077759,114.119019 
	C534.849792,112.456566 516.345947,123.165764 508.230957,140.653091 
	C499.856262,158.700180 503.854126,178.885681 519.291382,194.219650 
M275.469940,319.001434 
	C301.584381,318.217468 321.356140,297.809235 320.987946,272.018127 
	C320.634094,247.227600 299.969757,226.998764 274.999542,226.998932 
	C250.030289,226.999100 229.360733,247.233917 229.011993,272.019287 
	C228.649078,297.810913 248.417023,318.213226 275.469940,319.001434 
M838.516602,309.041718 
	C839.284058,308.403046 840.075134,307.790588 840.815430,307.121826 
	C856.475952,292.973938 860.522888,270.121063 850.674744,251.489822 
	C840.876770,232.953461 819.385864,223.271393 799.098694,228.253830 
	C778.527954,233.305908 763.760559,251.901047 764.063477,273.086945 
	C764.326416,291.469421 772.772156,305.488861 789.085205,313.824432 
	C805.977173,322.455872 822.525085,320.608856 838.516602,309.041718 
M128.729080,581.762024 
	C129.947662,582.894958 131.115814,584.088440 132.392517,585.151611 
	C147.801590,597.983276 169.096146,599.617981 185.901993,589.282593 
	C202.866959,578.849365 211.142715,559.358826 206.910492,539.804749 
	C202.822983,520.919312 186.268250,506.273254 166.627808,504.166351 
	C148.371124,502.207916 130.129333,511.974762 121.388733,528.387878 
	C112.186989,545.666870 114.752396,565.455078 128.729080,581.762024 
M899.578308,511.016876 
	C898.227234,511.986603 896.839172,512.909058 895.530701,513.933228 
	C878.691895,527.113220 873.226685,550.369934 882.415344,569.675171 
	C891.709595,589.202271 913.163330,599.612061 934.355103,594.877441 
	C954.786133,590.312805 969.856628,571.542297 970.000427,550.480835 
	C970.246887,514.375977 932.263489,492.698425 899.578308,511.016876 
M301.793396,788.676941 
	C285.387787,777.389526 265.096710,777.067017 249.375504,787.843689 
	C233.247711,798.899048 225.767578,817.988281 230.213943,836.743591 
	C234.593765,855.218262 249.989059,868.948486 269.438629,871.726013 
	C289.123383,874.537109 309.265625,862.854797 317.320465,843.955017 
	C325.674286,824.353699 319.835663,802.900513 301.793396,788.676941 
M813.252930,871.929688 
	C814.895386,871.684937 816.545776,871.484375 818.179016,871.188782 
	C844.602966,866.406799 861.414001,840.115540 854.507629,814.389587 
	C847.459656,788.136230 820.031494,773.635681 794.576294,782.705383 
	C773.843201,790.092590 760.836609,811.752136 764.514160,832.767395 
	C768.735413,856.890259 787.395325,872.188599 813.252930,871.929688 
M547.747192,894.072815 
	C545.940247,894.343628 544.124207,894.564697 542.327637,894.892578 
	C516.795044,899.551819 500.226959,925.134521 506.195892,950.664062 
	C512.018982,975.569946 538.019714,991.159058 562.629761,984.499878 
	C584.935486,978.464294 599.702576,956.921631 596.763000,934.705322 
	C593.539551,910.343506 573.981445,893.802979 547.747192,894.072815 
M547.759155,504.036316 
	C536.159729,504.940613 526.025085,509.450165 518.075562,517.785889 
	C498.479095,538.334106 500.780518,569.290222 523.449158,586.691040 
	C537.859253,597.752502 554.142517,599.296692 570.532532,591.549500 
	C586.884338,583.820435 595.858826,570.338440 596.929016,552.193604 
	C598.507080,525.437195 576.059265,502.631927 547.759155,504.036316 
z"/>
<path fill="#FFFFFF" opacity="1.000000" stroke="none" 
	d="
M518.531372,0.999998 
	C515.019287,1.596784 511.057739,2.420980 507.055145,2.757698 
	C320.624054,18.441145 159.343597,122.850266 69.011398,286.716278 
	C38.635265,341.819733 18.753099,400.603699 8.877317,462.780579 
	C1.174111,511.279114 -0.374821,559.961426 5.199131,608.722595 
	C19.886335,737.206787 72.834412,847.550598 164.404312,938.832581 
	C241.127625,1015.314758 333.109741,1064.242065 439.077362,1086.677124 
	C479.149536,1095.161011 519.766357,1098.082275 560.716187,1098.071899 
	C1015.358643,1097.956421 1470.001099,1097.999390 1924.643555,1097.998657 
	C1934.886841,1097.998657 1937.998779,1094.865234 1937.998779,1084.554565 
	C1937.999634,728.240234 1937.999512,371.925903 1937.998901,15.611572 
	C1937.998901,5.047515 1934.934937,2.001685 1924.292847,2.001658 
	C1479.149902,2.000524 1034.006958,2.001075 588.864014,1.991985 
	C586.036011,1.991927 583.207947,1.860249 580.189941,1.395016 
	C1032.966919,1.000000 1485.933960,1.000000 1938.950439,1.000000 
	C1938.950439,366.940247 1938.950439,732.880554 1938.950439,1098.910400 
	C1293.106934,1098.910400 647.213745,1098.910400 1.160321,1098.910400 
	C1.160321,733.000061 1.160321,367.000031 1.160321,1.000000 
	C173.420364,1.000000 345.741516,1.000000 518.531372,0.999998 
z"/>
<path fill="#FDFEFD" opacity="1.000000" stroke="none" 
	d="
M519.020142,193.989380 
	C503.854126,178.885681 499.856262,158.700180 508.230957,140.653091 
	C516.345947,123.165764 534.849792,112.456566 554.077759,114.119019 
	C573.364258,115.786552 589.813110,129.838623 594.656372,148.784836 
	C599.471802,167.622147 591.727295,187.416550 575.219849,198.463425 
	C559.430603,209.029663 538.233826,208.457947 522.793152,197.034012 
	C521.590271,196.144058 520.457031,195.159973 519.020142,193.989380 
z"/>
<path fill="#FDFEFD" opacity="1.000000" stroke="none" 
	d="
M275.001587,319.001434 
	C248.417023,318.213226 228.649078,297.810913 229.011993,272.019287 
	C229.360733,247.233917 250.030289,226.999100 274.999542,226.998932 
	C299.969757,226.998764 320.634094,247.227600 320.987946,272.018127 
	C321.356140,297.809235 301.584381,318.217468 275.001587,319.001434 
z"/>
<path fill="#FDFEFD" opacity="1.000000" stroke="none" 
	d="
M838.237366,309.263000 
	C822.525085,320.608856 805.977173,322.455872 789.085205,313.824432 
	C772.772156,305.488861 764.326416,291.469421 764.063477,273.086945 
	C763.760559,251.901047 778.527954,233.305908 799.098694,228.253830 
	C819.385864,223.271393 840.876770,232.953461 850.674744,251.489822 
	C860.522888,270.121063 856.475952,292.973938 840.815430,307.121826 
	C840.075134,307.790588 839.284058,308.403046 838.237366,309.263000 
z"/>
<path fill="#FDFEFD" opacity="1.000000" stroke="none" 
	d="
M128.485474,581.505737 
	C114.752396,565.455078 112.186989,545.666870 121.388733,528.387878 
	C130.129333,511.974762 148.371124,502.207916 166.627808,504.166351 
	C186.268250,506.273254 202.822983,520.919312 206.910492,539.804749 
	C211.142715,559.358826 202.866959,578.849365 185.901993,589.282593 
	C169.096146,599.617981 147.801590,597.983276 132.392517,585.151611 
	C131.115814,584.088440 129.947662,582.894958 128.485474,581.505737 
z"/>
<path fill="#FDFEFD" opacity="1.000000" stroke="none" 
	d="
M899.895325,510.834442 
	C932.263489,492.698425 970.246887,514.375977 970.000427,550.480835 
	C969.856628,571.542297 954.786133,590.312805 934.355103,594.877441 
	C913.163330,599.612061 891.709595,589.202271 882.415344,569.675171 
	C873.226685,550.369934 878.691895,527.113220 895.530701,513.933228 
	C896.839172,512.909058 898.227234,511.986603 899.895325,510.834442 
z"/>
<path fill="#FDFEFD" opacity="1.000000" stroke="none" 
	d="
M302.089600,788.878601 
	C319.835663,802.900513 325.674286,824.353699 317.320465,843.955017 
	C309.265625,862.854797 289.123383,874.537109 269.438629,871.726013 
	C249.989059,868.948486 234.593765,855.218262 230.213943,836.743591 
	C225.767578,817.988281 233.247711,798.899048 249.375504,787.843689 
	C265.096710,777.067017 285.387787,777.389526 302.089600,788.878601 
z"/>
<path fill="#FDFEFD" opacity="1.000000" stroke="none" 
	d="
M812.789917,871.948303 
	C787.395325,872.188599 768.735413,856.890259 764.514160,832.767395 
	C760.836609,811.752136 773.843201,790.092590 794.576294,782.705383 
	C820.031494,773.635681 847.459656,788.136230 854.507629,814.389587 
	C861.414001,840.115540 844.602966,866.406799 818.179016,871.188782 
	C816.545776,871.484375 814.895386,871.684937 812.789917,871.948303 
z"/>
<path fill="#FDFEFD" opacity="1.000000" stroke="none" 
	d="
M548.210205,894.053955 
	C573.981445,893.802979 593.539551,910.343506 596.763000,934.705322 
	C599.702576,956.921631 584.935486,978.464294 562.629761,984.499878 
	C538.019714,991.159058 512.018982,975.569946 506.195892,950.664062 
	C500.226959,925.134521 516.795044,899.551819 542.327637,894.892578 
	C544.124207,894.564697 545.940247,894.343628 548.210205,894.053955 
z"/>
<path fill="#000100" opacity="1.000000" stroke="none" 
	d="
M548.220642,504.023102 
	C576.059265,502.631927 598.507080,525.437195 596.929016,552.193604 
	C595.858826,570.338440 586.884338,583.820435 570.532532,591.549500 
	C554.142517,599.296692 537.859253,597.752502 523.449158,586.691040 
	C500.780518,569.290222 498.479095,538.334106 518.075562,517.785889 
	C526.025085,509.450165 536.159729,504.940613 548.220642,504.023102 
z"/>
</svg>