<svg version="1.1" id="Layer_1" xmlns="http://www.w3.org/2000/svg" xmlns:xlink="http://www.w3.org/1999/xlink" x="0px" y="0px"
	 width="100%" viewBox="0 0 1938 1098" enable-background="new 0 0 1938 1098" xml:space="preserve">
<path fill="#006600" opacity="1.000000" stroke="none" 
	d="
M1417.000000,1099.000000 
	C1398.312378,1099.000000 1379.624878,1099.000000 1360.250977,1098.623901 
	C1356.904419,1098.165039 1354.244141,1098.009888 1351.583740,1098.009888 
	C906.287720,1097.999146 460.991760,1097.999756 15.695759,1097.998535 
	C5.065879,1097.998535 2.001206,1094.946167 2.001189,1084.376587 
	C2.000610,728.073120 2.000565,371.769684 2.001357,15.466225 
	C2.001380,5.150219 5.118250,2.001565 15.335423,2.001544 
	C469.963959,2.000642 924.592529,1.961855 1379.221069,2.120672 
	C1401.014771,2.128285 1422.885742,3.022758 1444.586792,4.985208 
	C1506.102539,10.548173 1564.791382,26.988552 1620.772339,53.047665 
	C1797.972046,135.533859 1918.765869,307.116150 1935.817627,500.624420 
	C1941.093628,560.498474 1937.339233,619.811218 1922.940674,678.214722 
	C1890.055054,811.605103 1817.542236,918.527222 1705.916626,998.356628 
	C1624.384521,1056.664429 1533.043335,1089.166626 1433.065430,1097.218628 
	C1427.697266,1097.651001 1422.354614,1098.399048 1417.000000,1099.000000 
M1368.452026,118.884628 
	C1367.428589,119.433449 1366.376343,119.934937 1365.385986,120.538094 
	C1346.052490,132.312302 1338.020020,155.595520 1346.059326,176.524384 
	C1354.131104,197.538101 1375.909180,209.391739 1398.417236,205.022461 
	C1419.773438,200.876785 1435.329834,181.272095 1434.985962,158.937531 
	C1434.474365,125.712906 1400.520386,104.883362 1368.452026,118.884628 
M1128.603760,319.984772 
	C1154.868286,319.923004 1175.479370,300.517548 1175.978027,275.381683 
	C1176.478882,250.131683 1156.987061,228.973389 1132.361694,228.036362 
	C1107.089478,227.074707 1085.604248,246.039948 1084.075439,270.659149 
	C1082.461792,296.645264 1101.328125,317.982574 1128.603760,319.984772 
M1707.986694,257.622467 
	C1707.312744,256.106140 1706.706299,254.555450 1705.954590,253.078705 
	C1696.442749,234.390305 1675.408569,224.550537 1654.751099,229.102768 
	C1634.921875,233.472488 1619.674194,251.743469 1619.031616,271.904938 
	C1618.426636,290.885956 1628.656006,308.229675 1645.658447,315.684479 
	C1663.820435,323.647736 1681.091187,321.320984 1695.764160,307.954437 
	C1710.565674,294.470856 1714.468872,277.515503 1707.986694,257.622467 
M1021.959961,504.336548 
	C1019.136047,504.238525 1016.305115,503.960419 1013.489380,504.070770 
	C989.459595,505.012512 969.983032,525.637024 969.999268,550.045715 
	C970.015503,574.439270 989.550049,595.022278 1013.577576,595.963135 
	C1038.285522,596.930664 1058.971802,579.314453 1061.811523,554.887817 
	C1064.619751,530.731384 1047.721069,508.902802 1021.959961,504.336548 
M1736.887695,529.453125 
	C1727.934082,548.451172 1731.705078,569.705505 1746.476929,583.499451 
	C1761.160645,597.211243 1782.621582,599.931458 1800.142578,590.301941 
	C1817.941284,580.519775 1827.026611,560.654358 1822.988770,540.347900 
	C1819.297974,521.786011 1803.979370,507.594208 1784.167358,504.381805 
	C1765.839844,501.410095 1747.488892,510.926178 1736.887695,529.453125 
M1143.377930,783.001099 
	C1123.317383,777.304626 1102.968506,784.611816 1091.706909,801.555847 
	C1080.745483,818.048157 1081.536377,839.742737 1093.661865,855.185791 
	C1106.237915,871.202637 1127.093384,877.126587 1146.085083,870.076233 
	C1163.871460,863.473145 1175.875854,846.374634 1176.000854,827.465088 
	C1176.134399,807.263428 1164.409180,790.954712 1143.377930,783.001099 
M1699.694946,857.181274 
	C1700.330078,856.410278 1700.992065,855.659790 1701.596436,854.865356 
	C1713.811646,838.808472 1714.174072,816.797424 1702.501099,800.371094 
	C1690.852539,783.978943 1669.851807,777.028870 1650.704956,783.229797 
	C1631.901001,789.319519 1618.962280,807.234680 1618.999268,827.129944 
	C1619.034180,845.889221 1630.695801,862.980469 1648.136597,869.833069 
	C1666.064331,876.877075 1685.408203,872.283508 1699.694946,857.181274 
M1353.490845,912.022827 
	C1352.640015,913.253845 1351.737305,914.452454 1350.946167,915.720703 
	C1340.677856,932.181335 1341.883789,953.425598 1353.925049,968.501648 
	C1366.286743,983.978821 1386.552368,989.900818 1405.085327,983.451660 
	C1423.577637,977.016602 1435.996460,959.570007 1436.000732,940.020142 
	C1436.004883,920.811279 1424.033081,903.582214 1406.051880,896.919617 
	C1387.193726,889.932190 1367.524536,895.425659 1353.490845,912.022827 
M1409.572510,591.168274 
	C1413.746094,588.167053 1418.543457,585.749756 1421.990234,582.067993 
	C1441.296997,561.444763 1439.278687,531.513855 1417.163818,513.821777 
	C1403.102661,502.572723 1387.025024,500.726868 1370.617798,507.916107 
	C1354.021729,515.188049 1344.323730,528.486877 1343.181152,546.571228 
	C1340.912354,582.481201 1375.958374,606.182251 1409.572510,591.168274 
z"/>
<path fill="#FFFFFF" opacity="1.000000" stroke="none" 
	d="
M1417.468628,1099.000000 
	C1422.354614,1098.399048 1427.697266,1097.651001 1433.065430,1097.218628 
	C1533.043335,1089.166626 1624.384521,1056.664429 1705.916626,998.356628 
	C1817.542236,918.527222 1890.055054,811.605103 1922.940674,678.214722 
	C1937.339233,619.811218 1941.093628,560.498474 1935.817627,500.624420 
	C1918.765869,307.116150 1797.972046,135.533859 1620.772339,53.047665 
	C1564.791382,26.988552 1506.102539,10.548173 1444.586792,4.985208 
	C1422.885742,3.022758 1401.014771,2.128285 1379.221069,2.120672 
	C924.592529,1.961855 469.963959,2.000642 15.335423,2.001544 
	C5.118250,2.001565 2.001380,5.150219 2.001357,15.466225 
	C2.000565,371.769684 2.000610,728.073120 2.001189,1084.376587 
	C2.001206,1094.946167 5.065879,1097.998535 15.695759,1097.998535 
	C460.991760,1097.999756 906.287720,1097.999146 1351.583740,1098.009888 
	C1354.244141,1098.009888 1356.904419,1098.165039 1359.782471,1098.623901 
	C907.033020,1099.000000 454.066040,1099.000000 1.049533,1099.000000 
	C1.049533,733.059692 1.049533,367.119415 1.049533,1.089553 
	C646.893188,1.089553 1292.786377,1.089553 1938.839844,1.089553 
	C1938.839844,366.999939 1938.839844,732.999939 1938.839844,1099.000000 
	C1765.246094,1099.000000 1591.591675,1099.000000 1417.468628,1099.000000 
z"/>
<path fill="#FDFEFD" opacity="1.000000" stroke="none" 
	d="
M1368.784180,118.706711 
	C1400.520386,104.883362 1434.474365,125.712906 1434.985962,158.937531 
	C1435.329834,181.272095 1419.773438,200.876785 1398.417236,205.022461 
	C1375.909180,209.391739 1354.131104,197.538101 1346.059326,176.524384 
	C1338.020020,155.595520 1346.052490,132.312302 1365.385986,120.538094 
	C1366.376343,119.934937 1367.428589,119.433449 1368.784180,118.706711 
z"/>
<path fill="#FDFEFD" opacity="1.000000" stroke="none" 
	d="
M1128.138428,319.975830 
	C1101.328125,317.982574 1082.461792,296.645264 1084.075439,270.659149 
	C1085.604248,246.039948 1107.089478,227.074707 1132.361694,228.036362 
	C1156.987061,228.973389 1176.478882,250.131683 1175.978027,275.381683 
	C1175.479370,300.517548 1154.868286,319.923004 1128.138428,319.975830 
z"/>
<path fill="#FDFEFD" opacity="1.000000" stroke="none" 
	d="
M1708.098022,257.998474 
	C1714.468872,277.515503 1710.565674,294.470856 1695.764160,307.954437 
	C1681.091187,321.320984 1663.820435,323.647736 1645.658447,315.684479 
	C1628.656006,308.229675 1618.426636,290.885956 1619.031616,271.904938 
	C1619.674194,251.743469 1634.921875,233.472488 1654.751099,229.102768 
	C1675.408569,224.550537 1696.442749,234.390305 1705.954590,253.078705 
	C1706.706299,254.555450 1707.312744,256.106140 1708.098022,257.998474 
z"/>
<path fill="#FDFEFD" opacity="1.000000" stroke="none" 
	d="
M1022.392090,504.431519 
	C1047.721069,508.902802 1064.619751,530.731384 1061.811523,554.887817 
	C1058.971802,579.314453 1038.285522,596.930664 1013.577576,595.963135 
	C989.550049,595.022278 970.015503,574.439270 969.999268,550.045715 
	C969.983032,525.637024 989.459595,505.012512 1013.489380,504.070770 
	C1016.305115,503.960419 1019.136047,504.238525 1022.392090,504.431519 
z"/>
<path fill="#FDFEFD" opacity="1.000000" stroke="none" 
	d="
M1737.023926,529.105530 
	C1747.488892,510.926178 1765.839844,501.410095 1784.167358,504.381805 
	C1803.979370,507.594208 1819.297974,521.786011 1822.988770,540.347900 
	C1827.026611,560.654358 1817.941284,580.519775 1800.142578,590.301941 
	C1782.621582,599.931458 1761.160645,597.211243 1746.476929,583.499451 
	C1731.705078,569.705505 1727.934082,548.451172 1737.023926,529.105530 
z"/>
<path fill="#FDFEFD" opacity="1.000000" stroke="none" 
	d="
M1143.768677,783.088562 
	C1164.409180,790.954712 1176.134399,807.263428 1176.000854,827.465088 
	C1175.875854,846.374634 1163.871460,863.473145 1146.085083,870.076233 
	C1127.093384,877.126587 1106.237915,871.202637 1093.661865,855.185791 
	C1081.536377,839.742737 1080.745483,818.048157 1091.706909,801.555847 
	C1102.968506,784.611816 1123.317383,777.304626 1143.768677,783.088562 
z"/>
<path fill="#FDFEFD" opacity="1.000000" stroke="none" 
	d="
M1699.454346,857.442505 
	C1685.408203,872.283508 1666.064331,876.877075 1648.136597,869.833069 
	C1630.695801,862.980469 1619.034180,845.889221 1618.999268,827.129944 
	C1618.962280,807.234680 1631.901001,789.319519 1650.704956,783.229797 
	C1669.851807,777.028870 1690.852539,783.978943 1702.501099,800.371094 
	C1714.174072,816.797424 1713.811646,838.808472 1701.596436,854.865356 
	C1700.992065,855.659790 1700.330078,856.410278 1699.454346,857.442505 
z"/>
<path fill="#FDFEFD" opacity="1.000000" stroke="none" 
	d="
M1353.719116,911.747559 
	C1367.524536,895.425659 1387.193726,889.932190 1406.051880,896.919617 
	C1424.033081,903.582214 1436.004883,920.811279 1436.000732,940.020142 
	C1435.996460,959.570007 1423.577637,977.016602 1405.085327,983.451660 
	C1386.552368,989.900818 1366.286743,983.978821 1353.925049,968.501648 
	C1341.883789,953.425598 1340.677856,932.181335 1350.946167,915.720703 
	C1351.737305,914.452454 1352.640015,913.253845 1353.719116,911.747559 
z"/>
<path fill="#000100" opacity="1.000000" stroke="none" 
	d="
M1409.237549,591.341064 
	C1375.958374,606.182251 1340.912354,582.481201 1343.181152,546.571228 
	C1344.323730,528.486877 1354.021729,515.188049 1370.617798,507.916107 
	C1387.025024,500.726868 1403.102661,502.572723 1417.163818,513.821777 
	C1439.278687,531.513855 1441.296997,561.444763 1421.990234,582.067993 
	C1418.543457,585.749756 1413.746094,588.167053 1409.237549,591.341064 
z"/>
</svg>